<svg xmlns="http://www.w3.org/2000/svg" version="1.1" xmlns:xlink="http://www.w3.org/1999/xlink" width="1000" height="1000"><style>
    #light-icon {
      display: inline;
    }
    #dark-icon {
      display: none;
    }

    @media (prefers-color-scheme: dark) {
      #light-icon {
        display: none;
      }
      #dark-icon {
        display: inline;
      }
    }
  </style><g id="light-icon"><svg xmlns="http://www.w3.org/2000/svg" version="1.1" xmlns:xlink="http://www.w3.org/1999/xlink" width="1000" height="1000"><g clip-path="url(#SvgjsClipPath1104)"><rect width="1000" height="1000" fill="#ffffff"></rect><g transform="matrix(0.78125,0,0,0.78125,0,187.5)"><svg xmlns="http://www.w3.org/2000/svg" version="1.1" id="svg1" width="1280" height="800" viewBox="0 0 1280 800" sodipodi:docname="LogoStdSoft_clean.svg" inkscape:version="1.4.3 (0d15f75, 2025-12-25)" xmlns:inkscape="http://www.inkscape.org/namespaces/inkscape" xmlns:sodipodi="http://sodipodi.sourceforge.net/DTD/sodipodi-0.dtd" xmlns:svg="http://www.w3.org/2000/svg"><defs id="defs1"><clipPath id="SvgjsClipPath1104"><rect width="1000" height="1000" x="0" y="0" rx="0" ry="0"></rect></clipPath></defs><sodipodi:namedview id="namedview1" pagecolor="#ffffff" bordercolor="#cccccc" borderopacity="1" inkscape:showpageshadow="0" inkscape:pageopacity="1" inkscape:pagecheckerboard="0" inkscape:deskcolor="#d1d1d1" inkscape:zoom="1.4142136" inkscape:cx="647.35626" inkscape:cy="559.32146" inkscape:window-width="3840" inkscape:window-height="2050" inkscape:window-x="-12" inkscape:window-y="-12" inkscape:window-maximized="1" inkscape:current-layer="g1"></sodipodi:namedview><g inkscape:groupmode="layer" inkscape:label="Image" id="g1">
    <path style="fill:#e51c27;fill-opacity:1" d="M 640,800.00003 H 0 V 400 0 h 640 640 v 400 400.00003 z m 38.5,-166.7478 448,-0.2478 h 25.25 25.25 v -211.50003 -211.5 l -6.75,-0.008 -6.75,-0.008 -527.34748,0.009 -527.34747,0.009 -0.90253,0.55779 L 107,211.12243 v 210.93336 210.93334 l 61.75,0.2576 61.75,0.2577 z M 294.25,559.2181 278,580.22579 v -32.46376 -32.46377 l 5.22086,-6.8966 5.22086,-6.8966 8.02914,-10.12387 8.02914,-10.12387 9.5,-12.27739 9.5,-12.27739 9.29765,-11.94729 9.29765,-11.94729 -4.23304,-5.65398 -4.23304,-5.65398 -18.03028,-23.5 -18.03028,-23.5 -9.79793,-12.80157 -9.79793,-12.80158 0.2636,-32.57519 0.2636,-32.57519 4.19763,5.37677 4.19764,5.37676 12.72864,17 12.72865,17 12.51159,16.5 12.5116,16.5 6.14072,8 6.14072,8 19.98727,26.54755 19.98726,26.54755 0.73896,1.19565 0.73895,1.19566 -9.39198,12.25679 L 372.32567,457.5 355.8531,479 339.38053,500.5 324.94026,519.3552 310.5,538.2104 Z M 905.41821,455 H 766 V 434.5 414 h 141 141 V 433.89301 453.78602 455 h -3.1636 z" id="path1" sodipodi:nodetypes="cccccccccccccccccccccccccccccccccccccccccccccccccccccccccccccccccccccccccccc"></path>
  </g></svg></g></g></svg></g><g id="dark-icon"><svg xmlns="http://www.w3.org/2000/svg" version="1.1" xmlns:xlink="http://www.w3.org/1999/xlink" width="1000" height="1000"><g clip-path="url(#SvgjsClipPath1105)"><rect width="1000" height="1000" fill="#ffffff"></rect><g transform="matrix(0.78125,0,0,0.78125,0,187.5)"><svg xmlns="http://www.w3.org/2000/svg" version="1.1" id="svg1" width="1280" height="800" viewBox="0 0 1280 800" sodipodi:docname="LogoStdSoft_clean.svg" inkscape:version="1.4.3 (0d15f75, 2025-12-25)" xmlns:inkscape="http://www.inkscape.org/namespaces/inkscape" xmlns:sodipodi="http://sodipodi.sourceforge.net/DTD/sodipodi-0.dtd" xmlns:svg="http://www.w3.org/2000/svg"><defs id="defs1"><clipPath id="SvgjsClipPath1105"><rect width="1000" height="1000" x="0" y="0" rx="350" ry="350"></rect></clipPath></defs><sodipodi:namedview id="namedview1" pagecolor="#ffffff" bordercolor="#cccccc" borderopacity="1" inkscape:showpageshadow="0" inkscape:pageopacity="1" inkscape:pagecheckerboard="0" inkscape:deskcolor="#d1d1d1" inkscape:zoom="1.4142136" inkscape:cx="647.35626" inkscape:cy="559.32146" inkscape:window-width="3840" inkscape:window-height="2050" inkscape:window-x="-12" inkscape:window-y="-12" inkscape:window-maximized="1" inkscape:current-layer="g1"></sodipodi:namedview><g inkscape:groupmode="layer" inkscape:label="Image" id="g1">
    <path style="fill:#e51c27;fill-opacity:1" d="M 640,800.00003 H 0 V 400 0 h 640 640 v 400 400.00003 z m 38.5,-166.7478 448,-0.2478 h 25.25 25.25 v -211.50003 -211.5 l -6.75,-0.008 -6.75,-0.008 -527.34748,0.009 -527.34747,0.009 -0.90253,0.55779 L 107,211.12243 v 210.93336 210.93334 l 61.75,0.2576 61.75,0.2577 z M 294.25,559.2181 278,580.22579 v -32.46376 -32.46377 l 5.22086,-6.8966 5.22086,-6.8966 8.02914,-10.12387 8.02914,-10.12387 9.5,-12.27739 9.5,-12.27739 9.29765,-11.94729 9.29765,-11.94729 -4.23304,-5.65398 -4.23304,-5.65398 -18.03028,-23.5 -18.03028,-23.5 -9.79793,-12.80157 -9.79793,-12.80158 0.2636,-32.57519 0.2636,-32.57519 4.19763,5.37677 4.19764,5.37676 12.72864,17 12.72865,17 12.51159,16.5 12.5116,16.5 6.14072,8 6.14072,8 19.98727,26.54755 19.98726,26.54755 0.73896,1.19565 0.73895,1.19566 -9.39198,12.25679 L 372.32567,457.5 355.8531,479 339.38053,500.5 324.94026,519.3552 310.5,538.2104 Z M 905.41821,455 H 766 V 434.5 414 h 141 141 V 433.89301 453.78602 455 h -3.1636 z" id="path1" sodipodi:nodetypes="cccccccccccccccccccccccccccccccccccccccccccccccccccccccccccccccccccccccccccc"></path>
  </g></svg></g></g></svg></g></svg>